<svg xmlns="http://www.w3.org/2000/svg" width="20" height="20" viewBox="0 0 20 20"><defs><style>.a{fill:rgba(255,255,255,0);}.b,.d,.f{fill:none;}.b,.c,.d{stroke:#283246;}.c{fill:#f4f4f5;stroke-miterlimit:10;}.d{stroke-linecap:round;stroke-linejoin:round;}.e{stroke:none;}</style></defs><rect class="a" width="20" height="20"/><g transform="translate(3.5 0.5)"><g class="b" transform="translate(-0.5 2.679)"><rect class="e" width="14" height="14" rx="2"/><rect class="f" x="0.5" y="0.5" width="13" height="13" rx="1.5"/></g><path class="c" d="M432.5,789.75v-.5a2.5,2.5,0,0,0-2.5-2.5h0a2.5,2.5,0,0,0-2.5,2.5v.5H427a1.5,1.5,0,0,0-1.5,1.5v1.5h9v-1.5a1.5,1.5,0,0,0-1.5-1.5Z" transform="translate(-423.5 -786.572)"/><circle class="d" cx="0.5" cy="0.5" r="0.5" transform="translate(6 2)"/></g><line class="b" x2="8" transform="translate(5.773 9.679)"/><line class="b" x2="6" transform="translate(5.773 11.679)"/></svg>