<svg xmlns="http://www.w3.org/2000/svg" width="309.75" height="160.502" viewBox="0 0 309.75 160.502"><defs><style>.a{fill:#fff;}.b{fill:#878787;}.c{fill:#fcfdfd;}.d{fill:#aaadb8;}.e{fill:#b9b9b9;}.f{fill:#edf1f5;}.g{fill:#ecf0f4;}</style></defs><g transform="translate(1278.662 754.624)"><path class="a" d="M-1088.841-670.995l-.021.164.036-.162a1.784,1.784,0,0,1-.155-.652c.646-3.679.493-3.916-3.09-5.1a71.488,71.488,0,0,0-30.879-3.549,7.822,7.822,0,0,0-6.945,1.069c-.771.164-1.545.317-2.312.5a98.564,98.564,0,0,0-24.791,9.25c-2.537-1.184-5.134-2.255-8-1.747a5.445,5.445,0,0,1-4.152-.825,9.106,9.106,0,0,0-10.969,1.76c-2.329,2.563-2.261,5.036.232,8.519.076,1.409.24,2.822.193,4.225a2.856,2.856,0,0,1-.718,1.974c-2.792,2.165-5.686,4.2-8.545,6.275l-.357-.4c.384-.361.79-.7,1.147-1.082a6.54,6.54,0,0,0,1.024-7.731,6.554,6.554,0,0,0-7.068-3.313,6.7,6.7,0,0,0-5.3,5.5,6.661,6.661,0,0,0,3.678,6.9c.525.268,1.08.476,2.093.916l-2.136,4.845c-.891.408-2.352.081-2.27,1.751l-25.333,22.834c.523.767.723,1.081.944,1.377,1.895,2.546,1.828,2.435,4.594.784q10.97-6.55,22.058-12.9c2.452-1.4,5.079-2.493,7.652-3.738,5.183,8.995,10.576,17.442,19.756,22.545-.452.026-.9.074-1.356.074q-26.823.006-53.649,0c-1.1,0-2.208-.04-3.311-.062l-2.865-2.9c1-2.191,3.974-2.193,5.763-3.931a20.045,20.045,0,0,0-5.413,2.408c-1.7,1.158-1.556,2.032.089,3.424a3.6,3.6,0,0,1,.58.946c-.9.04-1.81.11-2.714.111q-22.545.011-45.089.015c-.739,0-1.475.109-2.214.168l.053.7h2.6q53.243,0,106.49,0c.9,0,1.8-.1,2.7-.159a18.658,18.658,0,0,0,10.657.053c10.753.034,21.506.081,32.26.061.478,0,.954-.638,1.432-.979a33.149,33.149,0,0,0,5.885,1.092c13.672.113,27.343.093,41.015.1q21.074.011,42.15-.032c.71,0,1.793-.283,2.064-.784,1.063-1.947,1.87-4.035,2.869-6.292l-52.83-6.942.087-.706c2.962.368,5.948.606,8.874,1.16a2.728,2.728,0,0,0,3.167-1.337q13.359-18.569,26.812-37.069c.382-.525.727-1.075,1.185-1.757a28.1,28.1,0,0,1-3.128-1.175c-1.812-.939-3.126-.4-4.622.863-5.2,4.378-10.534,8.589-15.791,12.9-5.138,4.207-10.243,8.451-15.362,12.678l-.48-.453c.907-2.382,1.987-4.715,2.688-7.157,2.992-10.4-.7-19.283-10.039-24.455Zm-32.15-83.629v53.595h64.042v-53.595Zm110.544,144.082.057-.236c-1.845-.773-3.755-1.422-5.521-2.346-2.826-1.477-5.519-2.189-8.146.327-.083.079-.274.049-.623.1l.733-3.417-2.291-.242-1.394,5.814Zm-33.161-62.582-.859,5.667c3.6,1.961,6.949,2.176,15.345.9-3.866-.909-7.149-4.422-11.792-2.227v-3.171Zm68.1,62.8,0-.389h-31.857l0,.389Zm-244.711,15.549.427.65,5.831-3.61-.416-.665Zm-18.06.635.442-.636-5.831-3.6-.395.663Zm9-4.86.429.011v-6l-.429.019Z" transform="translate(0 0)"/><path class="b" d="M-1160.635-709.8c9.338,5.172,13.031,14.059,10.039,24.455-.7,2.442-1.781,4.775-2.688,7.157q-.864,1.623-1.73,3.247c-.185.274-.37.55-.553.825s-.342.531-.512.8l-1.268,1.942-1.307,1.859q-.518.635-1.033,1.267l-.351.521-1.471,1.679-1.4,1.647,4.036.37-.038-.349-2.189-1.243q.754-.853,1.508-1.7l.37-.5,1-1.252,1.343-1.851q.615-.975,1.226-1.949l.57-.8.5-.8,1.787-3.253c5.119-4.227,10.224-8.471,15.362-12.678,5.257-4.307,10.595-8.517,15.791-12.9,1.5-1.262,2.81-1.8,4.622-.863a28.1,28.1,0,0,0,3.128,1.175c-.457.682-.8,1.232-1.185,1.757q-13.415,18.527-26.812,37.069a2.728,2.728,0,0,1-3.167,1.337c-2.926-.553-5.912-.792-8.874-1.16l-.087.706,52.83,6.942c-1,2.257-1.806,4.344-2.869,6.292-.272.5-1.354.782-2.064.784q-21.074.068-42.15.032c-13.672-.009-27.343.011-41.015-.1a33.149,33.149,0,0,1-5.885-1.092l-.013.064c-1.333-1.978-2.42-3.959-1-6.4q7.755-13.317,15.46-26.665l.761-1.029-1.179-.7c1.256-.614,2.816-.937,3.713-1.889a59.811,59.811,0,0,0,10.368-14.937l3.606-6.824.26-.582.131.138-.136-.134,1.669-.958-.036.162.021-.164Z" transform="translate(72.71 39.354)"/><path class="b" d="M-1225.462-700.1c-2.493-3.483-2.561-5.955-.232-8.519a9.106,9.106,0,0,1,10.969-1.76,5.445,5.445,0,0,0,4.152.825c2.865-.508,5.463.563,8,1.747l.5.506c.729,1.107,1.417,2.244,2.212,3.3a2.249,2.249,0,0,0,1.3.912,12.119,12.119,0,0,1,7.7,4.114,42.66,42.66,0,0,1,1.942,6.762,69.652,69.652,0,0,1,.079,8.441h5.313l.954-.013,2.106-.047,1.411-.049,1.037-.015.8-.017,2.741-.125.015.652c-4.318.13-8.636.306-12.956.365a1.882,1.882,0,0,0-2.095,1.507l-.863,1.864c-1.51,1.079-3.03,2.146-4.528,3.238-.941.686-1.853,1.411-2.777,2.117l-3.993,1.851-3.81.119c-3.506-.491-5.682-2.6-7.075-5.727a7.958,7.958,0,0,0-1.33-1.63l-.03-.519c.272-.325.7-.61.792-.979.466-1.855.844-3.73,1.313-5.876l-1.409-1.3-1.114-1.84c-.059-1.81-.9-3.64.449-5.389a2.327,2.327,0,0,0-.427-3.251c-1.037-1.014-2.159-.8-3.5-.28a9.01,9.01,0,0,1-4.216.5A12.876,12.876,0,0,1-1225.462-700.1Z" transform="translate(45.576 38.33)"/><path class="c" d="M-1202.767-695.429a12.119,12.119,0,0,0-7.7-4.114,2.249,2.249,0,0,1-1.3-.912c-.8-1.058-1.483-2.195-2.212-3.3a112.453,112.453,0,0,1,24.655-9.072,7.463,7.463,0,0,0,1.946-1.182,7.822,7.822,0,0,1,6.945-1.069c.455.264.943.8,1.362.752,9.426-1.084,18.571.323,27.572,3.03,5.092,1.53,5.085,1.555,3.521,6.477l.136.134-.131-.138-.26.582-3.606,6.824a17.366,17.366,0,0,1-3.392-1.048,38.178,38.178,0,0,0-16.373-4.356,54.379,54.379,0,0,0-28.146,5.693C-1200.784-696.61-1201.764-696-1202.767-695.429Z" transform="translate(57.489 34.787)"/><path class="d" d="M-1195.188-754.624h64.042v53.595h-64.042Zm63.171,52.794v-51.859h-62.257v51.859Z" transform="translate(74.197 0)"/><path class="e" d="M-1217.095-705.383a12.876,12.876,0,0,0,3.44,1.487,9.01,9.01,0,0,0,4.216-.5c1.339-.523,2.461-.735,3.5.28a2.327,2.327,0,0,1,.427,3.251c-1.345,1.749-.508,3.579-.449,5.389-4.278,1.364-7.452-.455-10.234-3.744-3.885,2.869-7.7,5.688-11.524,8.515,2.514,2.444,3.03,3.523,2.609,5.615a32.767,32.767,0,0,0-1.526-3.311,2.779,2.779,0,0,0-3.287-1.4c-1.264.346-2.17,1.077-2.012,2.582l-.674-.036-.478-.019,2.136-4.845c-1.012-.44-1.568-.648-2.093-.916a6.661,6.661,0,0,1-3.678-6.9,6.7,6.7,0,0,1,5.3-5.5,6.554,6.554,0,0,1,7.068,3.313,6.54,6.54,0,0,1-1.024,7.731c-.357.383-.763.722-1.147,1.082-2.62,1.114-2.62,1.114-2.537,2.658l2.894-2.257c2.86-2.078,5.754-4.11,8.545-6.275a2.856,2.856,0,0,0,.718-1.974C-1216.855-702.561-1217.019-703.974-1217.095-705.383Zm-7.261,6.492a5.838,5.838,0,0,0-5.84-5.922,5.787,5.787,0,0,0-5.72,5.789,5.71,5.71,0,0,0,5.81,5.884A5.8,5.8,0,0,0-1224.355-698.891Z" transform="translate(37.208 43.613)"/><path class="e" d="M-1170.758-693.76l.863-1.864c-.115,4.22.042,8.47-.406,12.654-.827,7.756-2.911,15-10.1,19.536l-1.73.835a18.658,18.658,0,0,1-10.657-.053l-1.662-.8c-9.18-5.1-14.573-13.551-19.756-22.545-2.573,1.245-5.2,2.335-7.652,3.738q-11.093,6.344-22.058,12.9c-2.765,1.651-2.7,1.762-4.594-.784-.221-.3-.421-.61-.944-1.377l25.333-22.834a10.32,10.32,0,0,1-1.424,2.253q-10.047,9.29-20.179,18.488c-.873.8-1.774,1.566-2.7,2.386l1.5,1.645c.707,1.4,1.366.268,1.951-.089,4.569-2.779,9.044-5.723,13.694-8.36,5.43-3.077,11.006-5.9,16.425-8.776l-1.607-4.975-.015.043c1.292-.41,2.231-2.491,3.961-.837l.1,1.065c-.767-.406-1.524-1.3-2.389-.281a3.878,3.878,0,0,0-.419,1.454c1.062,2.153,2.021,4.361,3.2,6.445,3.517,6.2,7.584,12,13.165,16.556,10.436,8.515,21.724,5.293,26.013-7.431C-1170.764-680.929-1170.447-687.315-1170.758-693.76Z" transform="translate(25.965 52.443)"/><path class="c" d="M-1247.408-669.352l-1.5-1.645c.929-.82,1.83-1.589,2.7-2.386q10.1-9.228,20.179-18.488a10.32,10.32,0,0,0,1.424-2.253c-.081-1.67,1.379-1.343,2.27-1.751l.478.019c.263,1.332.521,2.665.788,4,.155.773.319,1.545.478,2.318a7.926,7.926,0,0,1-1.351,1.6c-3.732,2.576-7.529,5.06-11.263,7.635-4.037,2.786-8.052,5.6-12.015,8.494A15.143,15.143,0,0,0-1247.408-669.352Z" transform="translate(26.449 52.22)"/><path class="d" d="M-1168.481-678.571l1.662.8c-.9.055-1.8.159-2.7.159q-53.246.008-106.49,0h-2.6l-.053-.7c.739-.059,1.475-.168,2.214-.168q22.545-.017,45.089-.015c.9,0,1.81-.072,2.714-.111l1.847.053c1.1.023,2.208.062,3.311.062q26.826.006,53.649,0C-1169.386-678.5-1168.932-678.545-1168.481-678.571Z" transform="translate(0 67.565)"/><path class="b" d="M-1128.576-675.608h-17.187l1.394-5.814,2.291.242-.733,3.417c.349-.051.54-.021.623-.1,2.627-2.516,5.321-1.8,8.146-.327,1.766.924,3.676,1.573,5.521,2.346Z" transform="translate(118.129 65.066)"/><path class="b" d="M-1153.816-711.476l2.694,1.171v3.171c4.643-2.195,7.926,1.318,11.792,2.227-8.4,1.273-11.749,1.058-15.345-.9Z" transform="translate(110.207 38.353)"/><path class="e" d="M-1163.771-704.815c1.564-4.922,1.571-4.947-3.521-6.477-9-2.707-18.146-4.114-27.572-3.03-.419.047-.906-.487-1.362-.752a71.488,71.488,0,0,1,30.879,3.549c3.583,1.184,3.736,1.421,3.09,5.1a1.784,1.784,0,0,0,.155.652Z" transform="translate(73.275 34.78)"/><path class="d" d="M-1213.808-677.708l1.73-.835,31.948-.019.013-.064c-.478.34-.954.977-1.432.979C-1192.3-677.627-1203.055-677.674-1213.808-677.708Z" transform="translate(57.646 67.552)"/><ellipse class="d" cx="22.527" cy="0.275" rx="22.527" ry="0.275" transform="translate(-1013.967 -610.791)"/><path class="e" d="M-1187.148-714.706a7.463,7.463,0,0,1-1.946,1.182,112.453,112.453,0,0,0-24.655,9.072l-.5-.506a98.564,98.564,0,0,1,24.791-9.25C-1188.693-714.389-1187.919-714.542-1187.148-714.706Z" transform="translate(57.252 35.482)"/><path class="e" d="M-1249.449-675.368l-1.847-.053a3.6,3.6,0,0,0-.58-.946c-1.645-1.392-1.792-2.267-.089-3.424a20.045,20.045,0,0,1,5.413-2.408c-1.789,1.738-4.758,1.74-5.763,3.931Z" transform="translate(22.652 64.375)"/><path class="e" d="M-1247.723-668.289l5.842-3.625.416.665-5.831,3.61Z" transform="translate(27.5 73.518)"/><path class="e" d="M-1254.562-667.664l-5.783-3.576.395-.663,5.831,3.6Z" transform="translate(16.28 73.527)"/><path class="e" d="M-1252.517-669.416v-5.965l.429-.019v6Z" transform="translate(23.239 70.419)"/><path class="e" d="M-1177.251-709.8l-.916-.552Z" transform="translate(89.326 39.354)"/><path class="a" d="M-1180.944-662.572l-31.948.019c7.185-4.533,9.269-11.781,10.1-19.536.448-4.184.291-8.434.406-12.654a1.882,1.882,0,0,1,2.095-1.507c4.32-.059,8.638-.234,12.956-.365.822.025,1.642.068,2.463.07q8.979.023,17.956.032l.427.419.013.455q-7.726,13.336-15.46,26.665C-1183.364-666.531-1182.277-664.55-1180.944-662.572Z" transform="translate(58.46 51.562)"/><path class="f" d="M-1208.046-701.341c1-.57,1.983-1.181,3.011-1.7a54.379,54.379,0,0,1,28.146-5.693,38.178,38.178,0,0,1,16.373,4.356,17.366,17.366,0,0,0,3.392,1.048,59.811,59.811,0,0,1-10.368,14.937c-.9.952-2.457,1.275-3.713,1.889l-20.456.1-2.741.125-.8.017-1.037.015-1.411.049-2.106.047-.954.013h-5.313a69.652,69.652,0,0,0-.079-8.441A42.66,42.66,0,0,0-1208.046-701.341Z" transform="translate(62.768 40.699)"/><path class="e" d="M-1199.372-696.912l20.456-.1,1.179.7-.761,1.029-.013-.455-.427-.419q-8.976-.014-17.956-.032c-.822,0-1.641-.045-2.463-.07Z" transform="translate(70.478 51.207)"/><path class="f" d="M-1177.079-686.47l2.189,1.243.038.349-4.036-.37,1.4-1.647Z" transform="translate(88.685 60.202)"/><path class="f" d="M-1174.706-690.074l1.73-3.247.48.453q-.892,1.626-1.787,3.253Z" transform="translate(92.402 54.49)"/><path class="f" d="M-1175.941-688.8q.635-.972,1.268-1.942l.419.44-1.226,1.949Z" transform="translate(91.305 56.781)"/><path class="f" d="M-1176.633-687.856l1.307-1.859.461.448-1.343,1.851Z" transform="translate(90.69 57.695)"/><path class="f" d="M-1178.145-686.1l1.471-1.679.442.4-1.508,1.7Z" transform="translate(89.346 59.411)"/><path class="f" d="M-1177.18-687.464l1.033-1.267.425.44-1,1.252Z" transform="translate(90.203 58.57)"/><path class="f" d="M-1175-690.776l.555-.825.423.459-.5.8Z" transform="translate(92.141 56.018)"/><path class="f" d="M-1174.28-690.732l-.57.8-.419-.44c.17-.266.34-.533.512-.8Z" transform="translate(91.901 56.406)"/><path class="e" d="M-1179.178-709.261l.26-.582Z" transform="translate(88.427 39.804)"/><path class="f" d="M-1177.366-687.539l.351-.521.461.425-.37.5Z" transform="translate(90.038 59.166)"/><path class="g" d="M-1186.863-694.637c.311,6.445-.006,12.831-2.085,19-4.29,12.723-15.578,15.946-26.013,7.431-5.582-4.556-9.648-10.353-13.165-16.556-1.183-2.083-2.142-4.292-3.2-6.445.591-1.071,1.009-.553,1.383.162a16.718,16.718,0,0,0,1.09,2.146c1.849,2.55,3.662,5.138,5.672,7.561,3.26,3.931,6.785,7.537,11.363,10.075,6.594,3.657,13.033.854,15.492-5.485,1.421-3.662,1.993-7.656,2.877-11.516.062-.27-.463-.676-.714-1.018.924-.707,1.836-1.432,2.777-2.117C-1189.893-692.491-1188.373-693.558-1186.863-694.637Z" transform="translate(42.07 53.32)"/><path class="c" d="M-1194.168-689.99c.251.342.776.748.714,1.018-.884,3.861-1.456,7.854-2.877,11.516-2.459,6.339-8.9,9.142-15.492,5.485-4.579-2.539-8.1-6.144-11.363-10.075-2.01-2.423-3.823-5.011-5.672-7.561a16.718,16.718,0,0,1-1.09-2.146c-.374-.716-.791-1.233-1.383-.162a3.878,3.878,0,0,1,.419-1.454c.865-1.02,1.622-.125,2.389.281l-.01-.015,1.369,1.37-.011-.015.472.472-.019-.019.472.472-.015-.011c2.9,2.6,5.633,5.412,8.74,7.725a29.856,29.856,0,0,0,7.727,4.1c4.093,1.458,7.115-.315,8.371-4.443a22.227,22.227,0,0,0,.5-2.871l.17-1.32,2.6-.493Z" transform="translate(42.07 54.028)"/><path class="g" d="M-1213.467-694.654a7.958,7.958,0,0,1,1.33,1.63c1.394,3.132,3.57,5.236,7.075,5.727l.54.38-.134,1.286c-1.277,7.731-5.349,8.547-11.418,5.189-3.2-1.772-6.022-4.229-8.974-6.43-.924-.689-1.717-1.558-2.807-2.561Z" transform="translate(45.161 53.305)"/><path class="c" d="M-1226.039-686.721c-1.73-1.655-2.669.427-3.961.837l-4.218-4.312c-.159-1.505.748-2.236,2.012-2.582a2.779,2.779,0,0,1,3.287,1.4,32.767,32.767,0,0,1,1.526,3.311c.421-2.093-.094-3.171-2.609-5.615,3.827-2.828,7.639-5.646,11.524-8.515,2.782,3.289,5.956,5.108,10.234,3.744l1.114,1.84c-5.969,2.748-11.951,5.472-17.889,8.285C-1225.5-688.1-1225.706-687.272-1226.039-686.721Z" transform="translate(39.489 46.596)"/><path class="g" d="M-1229.9-689.348c.333-.552.535-1.383,1.02-1.613,5.938-2.812,11.921-5.536,17.889-8.285l1.409,1.3c-.468,2.146-.846,4.021-1.312,5.876-.093.368-.52.654-.792.979-4.2,1.426-8.386,2.869-12.593,4.263-1.06.351-2.174.536-3.264.8l.015.011.04-.512-.512.04.019.019.038-.512-.51.04.011.015-1.369-1.37.01.015Z" transform="translate(43.346 49.223)"/><path class="e" d="M-1228.648-689.867c1.09-.263,2.2-.448,3.264-.8,4.207-1.394,8.4-2.837,12.593-4.263l.03.519-14.387,5.221c1.09,1,1.883,1.872,2.807,2.561,2.952,2.2,5.776,4.658,8.974,6.43,6.069,3.358,10.141,2.542,11.418-5.189l.636.028a22.227,22.227,0,0,1-.5,2.871c-1.256,4.127-4.278,5.9-8.371,4.443a29.856,29.856,0,0,1-7.727-4.1C-1223.015-684.455-1225.752-687.268-1228.648-689.867Z" transform="translate(44.455 53.06)"/><path class="e" d="M-1215.247-690.323l-.54-.38,3.81-.119-2.6.493Z" transform="translate(55.887 56.711)"/><path class="e" d="M-1202.543-696.828l1.411-.049Z" transform="translate(67.659 51.329)"/><path class="e" d="M-1201.247-696.877l.8-.017Z" transform="translate(68.811 51.314)"/><path class="e" d="M-1204.163-696.813l.954-.013Z" transform="translate(66.219 51.374)"/><path class="g" d="M-1132.447-702.27H-1194.7v-51.859h62.257Zm-57.333-46.881c-.043.926-.1,1.594-.1,2.261q-.009,18.584,0,37.163c0,2.561.011,2.569,2.714,2.569q23.681.006,47.361,0c.8,0,1.592-.081,2.329-.121v-41.869Z" transform="translate(74.627 0.44)"/><path class="g" d="M-1224.772-699.241a5.8,5.8,0,0,1-5.75,5.752,5.71,5.71,0,0,1-5.81-5.884,5.787,5.787,0,0,1,5.72-5.789A5.838,5.838,0,0,1-1224.772-699.241Z" transform="translate(37.625 43.964)"/><path class="b" d="M-1233.909-695.829l4.218,4.312.015-.043-1.543-.208-2.1,2.218c-.159-.773-.323-1.545-.478-2.318-.266-1.332-.525-2.665-.788-4Z" transform="translate(39.18 52.229)"/><path class="f" d="M-1229.8-698.673l-2.894,2.257c-.083-1.543-.083-1.543,2.537-2.658Z" transform="translate(40.841 49.377)"/><path class="g" d="M-1221.291-691.478l2.1-2.218,1.543.208,1.607,4.975c-5.419,2.88-10.995,5.7-16.425,8.776-4.651,2.637-9.125,5.582-13.694,8.36-.586.357-1.245,1.485-1.951.089a15.143,15.143,0,0,1,2.193-2.465c3.963-2.892,7.979-5.708,12.015-8.494,3.734-2.574,7.531-5.058,11.263-7.635A7.926,7.926,0,0,0-1221.291-691.478Z" transform="translate(27.154 54.157)"/><path class="c" d="M-1188.554-696.561l.427.419Z" transform="translate(80.093 51.61)"/><path class="e" d="M-1229.849-693.45l1.369,1.37Z" transform="translate(43.388 54.375)"/><path class="b" d="M-1215.438-690.555l.672-.006-.17,1.32-.636-.028Q-1215.507-689.912-1215.438-690.555Z" transform="translate(56.078 56.943)"/><path class="e" d="M-1229.13-692.714l.51-.04-.038.512Z" transform="translate(44.027 54.994)"/><path class="e" d="M-1228.89-692.474l.512-.04-.04.512Z" transform="translate(44.24 55.207)"/><path class="d" d="M-1192.047-751.494h52.3v41.869c-.737.04-1.534.119-2.329.121q-23.681.011-47.361,0c-2.7,0-2.714-.007-2.714-2.569q-.008-18.581,0-37.163C-1192.149-749.9-1192.091-750.568-1192.047-751.494Zm51.122,41.068.595-.387q-.008-10.611-.015-21.223l-.093-.969-.007-2.682v-13.184l0-1.332-.487-.469-48.5,0-1.768.9.01,22.687v16.31l.395.351Z" transform="translate(76.895 2.782)"/><path class="f" d="M-1140.89-736.075l.007,2.682-.5.918c-1.5.961-2.983,1.953-4.505,2.875-3.985,2.412-8.007,4.766-11.977,7.2a2.866,2.866,0,0,1-3.661-.161c-4.885-3.615-9.864-7.1-14.782-10.665-2.627-1.9-2.832-1.923-5.57-.221-3.241,2.015-6.511,3.985-9.769,5.974l-.01-22.687,1.768-.9q24.253,0,48.5,0l.487.469,0,1.332a3.7,3.7,0,0,0-.463,1.192q-.057,5.4,0,10.8A3.743,3.743,0,0,0-1140.89-736.075Zm-22.414-5.087,2.856,3.695-2.393,3.1.506.408c1.084-.686,2.176-1.919,3.252-1.908,1.107.013,2.2,1.241,3.3,1.936l.416-.37a8.732,8.732,0,0,0-1.25-1.8c-1.271-1.107-1.279-2.036-.008-3.154a8.229,8.229,0,0,0,1.215-1.86l-.554-.351-3,2.567C-1160.562-739.441-1160.98-741.579-1163.3-741.161Z" transform="translate(77.339 3.169)"/><path class="c" d="M-1191.648-735.174c3.258-1.989,6.528-3.959,9.769-5.974,2.739-1.7,2.943-1.683,5.57.221,4.918,3.566,9.9,7.049,14.782,10.665a2.866,2.866,0,0,0,3.661.161c3.97-2.435,7.992-4.788,11.977-7.2,1.522-.922,3-1.913,4.505-2.875l.589.051q.005,10.614.015,21.223l-.595.387-49.879,0-.395-.351Z" transform="translate(77.343 10.872)"/><path class="g" d="M-1164.547-736.922a3.743,3.743,0,0,1-.463-1.192q-.057-5.4,0-10.8a3.7,3.7,0,0,1,.463-1.192Z" transform="translate(100.996 4.016)"/><path class="g" d="M-1189.885-751.058l-1.768.9Z" transform="translate(77.339 3.17)"/><path class="g" d="M-1164.448-740.737l-.589-.051.5-.918Z" transform="translate(100.997 11.482)"/><path class="g" d="M-1165.032-729.57l.595-.387Z" transform="translate(101.001 21.926)"/><path class="g" d="M-1191.648-729.936l.395.351Z" transform="translate(77.343 21.944)"/><path class="g" d="M-1164.551-750.59l-.487-.469Z" transform="translate(100.996 3.169)"/><path class="c" d="M-1176.644-745.675c2.324-.417,2.741,1.721,4.343,2.261l3-2.567.554.351a8.229,8.229,0,0,1-1.215,1.86c-1.271,1.118-1.263,2.047.008,3.154a8.732,8.732,0,0,1,1.25,1.8l-.416.37c-1.1-.7-2.191-1.923-3.3-1.936-1.076-.011-2.168,1.222-3.252,1.908l-.506-.408,2.393-3.1Z" transform="translate(90.68 7.682)"/></g></svg>