<?xml version="1.0" encoding="UTF-8"?>
<svg xmlns="http://www.w3.org/2000/svg" xmlns:xlink="http://www.w3.org/1999/xlink" width="167pt" height="160pt" viewBox="0 0 167 160" version="1.1">
<defs>
<filter id="alpha" filterUnits="objectBoundingBox" x="0%" y="0%" width="100%" height="100%">
  <feColorMatrix type="matrix" in="SourceGraphic" values="0 0 0 0 1 0 0 0 0 1 0 0 0 0 1 0 0 0 1 0"/>
</filter>
<mask id="mask0">
  <g filter="url(#alpha)">
<rect x="0" y="0" width="167" height="160" style="fill:rgb(0%,0%,0%);fill-opacity:0.501961;stroke:none;"/>
  </g>
</mask>
<linearGradient id="linear0" gradientUnits="userSpaceOnUse" x1="539.63" y1="734.6" x2="539.63" y2="151.19" gradientTransform="matrix(0.199126,-0.0429786,0.0427254,0.200307,-55.890027,13.319232)">
<stop offset="0" style="stop-color:rgb(50.196078%,50.196078%,50.196078%);stop-opacity:0.25098;"/>
<stop offset="0.54" style="stop-color:rgb(50.196078%,50.196078%,50.196078%);stop-opacity:0.121569;"/>
<stop offset="1" style="stop-color:rgb(50.196078%,50.196078%,50.196078%);stop-opacity:0.101961;"/>
</linearGradient>
<clipPath id="clip1">
  <rect width="167" height="160"/>
</clipPath>
<g id="surface6" clip-path="url(#clip1)">
<path style=" stroke:none;fill-rule:nonzero;fill:url(#linear0);" d="M 15.984375 29.484375 L 100.066406 11.335938 L 124.992188 128.199219 L 40.910156 146.34375 Z M 15.984375 29.484375 "/>
</g>
<linearGradient id="linear1" gradientUnits="userSpaceOnUse" x1="540.17" y1="180.2" x2="540.17" y2="130.75" gradientTransform="matrix(0.199126,-0.0429786,0.0427254,0.200307,-55.890159,13.319342)">
<stop offset="0" style="stop-color:rgb(50.196078%,50.196078%,50.196078%);stop-opacity:0.25098;"/>
<stop offset="0.54" style="stop-color:rgb(50.196078%,50.196078%,50.196078%);stop-opacity:0.121569;"/>
<stop offset="1" style="stop-color:rgb(50.196078%,50.196078%,50.196078%);stop-opacity:0.101961;"/>
</linearGradient>
<linearGradient id="linear2" gradientUnits="userSpaceOnUse" x1="540.17" y1="140.86" x2="540.17" y2="82.43" gradientTransform="matrix(0.199126,-0.0429786,0.0427254,0.200307,-55.890012,13.31831)">
<stop offset="0" style="stop-color:rgb(50.196078%,50.196078%,50.196078%);stop-opacity:0.25098;"/>
<stop offset="0.54" style="stop-color:rgb(50.196078%,50.196078%,50.196078%);stop-opacity:0.121569;"/>
<stop offset="1" style="stop-color:rgb(50.196078%,50.196078%,50.196078%);stop-opacity:0.101961;"/>
</linearGradient>
<mask id="mask1">
  <g filter="url(#alpha)">
<rect x="0" y="0" width="167" height="160" style="fill:rgb(0%,0%,0%);fill-opacity:0.501961;stroke:none;"/>
  </g>
</mask>
<linearGradient id="linear3" gradientUnits="userSpaceOnUse" x1="476.4" y1="710.53" x2="476.4" y2="127.12" gradientTransform="matrix(0.203659,0,0,0.204866,0,-0.000000000000011645)">
<stop offset="0" style="stop-color:rgb(50.196078%,50.196078%,50.196078%);stop-opacity:0.25098;"/>
<stop offset="0.54" style="stop-color:rgb(50.196078%,50.196078%,50.196078%);stop-opacity:0.121569;"/>
<stop offset="1" style="stop-color:rgb(50.196078%,50.196078%,50.196078%);stop-opacity:0.101961;"/>
</linearGradient>
<clipPath id="clip2">
  <rect width="167" height="160"/>
</clipPath>
<g id="surface9" clip-path="url(#clip2)">
<path style=" stroke:none;fill-rule:nonzero;fill:url(#linear3);" d="M 54.027344 26.042969 L 140.019531 26.042969 L 140.019531 145.5625 L 54.027344 145.5625 Z M 54.027344 26.042969 "/>
</g>
<linearGradient id="linear4" gradientUnits="userSpaceOnUse" x1="476.94" y1="156.13" x2="476.94" y2="106.68" gradientTransform="matrix(0.203659,0,0,0.204866,0,-0.000000000000011645)">
<stop offset="0" style="stop-color:rgb(50.196078%,50.196078%,50.196078%);stop-opacity:0.25098;"/>
<stop offset="0.54" style="stop-color:rgb(50.196078%,50.196078%,50.196078%);stop-opacity:0.121569;"/>
<stop offset="1" style="stop-color:rgb(50.196078%,50.196078%,50.196078%);stop-opacity:0.101961;"/>
</linearGradient>
<linearGradient id="linear5" gradientUnits="userSpaceOnUse" x1="666.86" y1="176.39" x2="666.86" y2="117.95" gradientTransform="matrix(0.203659,0,0,0.204866,-38.678829,-12.207939)">
<stop offset="0" style="stop-color:rgb(50.196078%,50.196078%,50.196078%);stop-opacity:0.25098;"/>
<stop offset="0.54" style="stop-color:rgb(50.196078%,50.196078%,50.196078%);stop-opacity:0.121569;"/>
<stop offset="1" style="stop-color:rgb(50.196078%,50.196078%,50.196078%);stop-opacity:0.101961;"/>
</linearGradient>
<mask id="mask2">
  <g filter="url(#alpha)">
<rect x="0" y="0" width="167" height="160" style="fill:rgb(0%,0%,0%);fill-opacity:0.501961;stroke:none;"/>
  </g>
</mask>
<clipPath id="clip3">
  <rect width="167" height="160"/>
</clipPath>
<g id="surface12" clip-path="url(#clip3)">
<path style=" stroke:none;fill-rule:nonzero;fill:rgb(27.843137%,90.196078%,69.411765%);fill-opacity:1;" d="M 3.109375 150.996094 L 3.875 150.996094 L 3.875 155.367188 L 3.109375 155.367188 Z M 3.109375 150.996094 "/>
<path style=" stroke:none;fill-rule:nonzero;fill:rgb(27.843137%,90.196078%,69.411765%);fill-opacity:1;" d="M 5.664062 152.796875 L 5.664062 153.566406 L 1.320312 153.566406 L 1.320312 152.796875 Z M 5.664062 152.796875 "/>
</g>
<mask id="mask3">
  <g filter="url(#alpha)">
<rect x="0" y="0" width="167" height="160" style="fill:rgb(0%,0%,0%);fill-opacity:0.501961;stroke:none;"/>
  </g>
</mask>
<clipPath id="clip4">
  <rect width="167" height="160"/>
</clipPath>
<g id="surface15" clip-path="url(#clip4)">
<path style=" stroke:none;fill-rule:nonzero;fill:rgb(27.843137%,90.196078%,69.411765%);fill-opacity:1;" d="M 91.949219 0 L 92.714844 0 L 92.714844 4.371094 L 91.949219 4.371094 Z M 91.949219 0 "/>
<path style=" stroke:none;fill-rule:nonzero;fill:rgb(27.843137%,90.196078%,69.411765%);fill-opacity:1;" d="M 94.503906 1.796875 L 94.503906 2.570312 L 90.160156 2.570312 L 90.160156 1.796875 Z M 94.503906 1.796875 "/>
</g>
<mask id="mask4">
  <g filter="url(#alpha)">
<rect x="0" y="0" width="167" height="160" style="fill:rgb(0%,0%,0%);fill-opacity:0.501961;stroke:none;"/>
  </g>
</mask>
<clipPath id="clip5">
  <rect width="167" height="160"/>
</clipPath>
<g id="surface18" clip-path="url(#clip5)">
<path style=" stroke:none;fill-rule:nonzero;fill:rgb(30.196078%,54.117647%,94.117647%);fill-opacity:1;" d="M 157.035156 158.269531 C 156.601562 158.078125 156.375 157.589844 156.511719 157.128906 C 156.523438 157.097656 156.53125 157.0625 156.535156 157.023438 C 156.546875 156.816406 156.421875 156.625 156.226562 156.554688 C 156.03125 156.480469 155.8125 156.546875 155.6875 156.710938 C 155.667969 156.742188 155.648438 156.769531 155.636719 156.804688 C 155.445312 157.242188 154.957031 157.46875 154.5 157.332031 C 154.46875 157.320312 154.433594 157.3125 154.398438 157.308594 C 154.191406 157.296875 154 157.421875 153.929688 157.617188 C 153.855469 157.816406 153.921875 158.035156 154.085938 158.160156 C 154.113281 158.179688 154.144531 158.199219 154.175781 158.214844 C 154.613281 158.40625 154.839844 158.894531 154.699219 159.355469 C 154.691406 159.386719 154.683594 159.421875 154.679688 159.460938 C 154.667969 159.667969 154.792969 159.859375 154.988281 159.929688 C 155.183594 160.003906 155.402344 159.9375 155.527344 159.773438 C 155.546875 159.742188 155.566406 159.714844 155.578125 159.679688 C 155.769531 159.242188 156.257812 159.015625 156.714844 159.152344 C 156.746094 159.164062 156.78125 159.171875 156.816406 159.175781 C 157.023438 159.1875 157.214844 159.0625 157.285156 158.867188 C 157.359375 158.667969 157.292969 158.449219 157.128906 158.324219 C 157.101562 158.304688 157.070312 158.285156 157.035156 158.269531 Z M 157.035156 158.269531 "/>
</g>
<mask id="mask5">
  <g filter="url(#alpha)">
<rect x="0" y="0" width="167" height="160" style="fill:rgb(0%,0%,0%);fill-opacity:0.501961;stroke:none;"/>
  </g>
</mask>
<clipPath id="clip6">
  <rect width="167" height="160"/>
</clipPath>
<g id="surface21" clip-path="url(#clip6)">
<path style=" stroke:none;fill-rule:nonzero;fill:rgb(99.215686%,84.705882%,20.784314%);fill-opacity:1;" d="M 27.835938 116.261719 C 27.398438 116.070312 27.171875 115.578125 27.3125 115.121094 C 27.320312 115.085938 27.328125 115.050781 27.332031 115.015625 C 27.34375 114.808594 27.21875 114.617188 27.023438 114.542969 C 26.828125 114.472656 26.609375 114.535156 26.484375 114.703125 C 26.464844 114.730469 26.445312 114.761719 26.433594 114.792969 C 26.242188 115.234375 25.753906 115.460938 25.296875 115.320312 C 25.265625 115.308594 25.230469 115.304688 25.195312 115.300781 C 24.988281 115.289062 24.796875 115.414062 24.726562 115.609375 C 24.652344 115.804688 24.71875 116.023438 24.882812 116.152344 C 24.910156 116.171875 24.941406 116.191406 24.976562 116.203125 C 25.410156 116.394531 25.636719 116.886719 25.5 117.34375 C 25.488281 117.378906 25.480469 117.414062 25.476562 117.449219 C 25.464844 117.65625 25.589844 117.851562 25.785156 117.921875 C 25.980469 117.992188 26.199219 117.929688 26.324219 117.761719 C 26.34375 117.734375 26.363281 117.703125 26.375 117.671875 C 26.566406 117.230469 27.054688 117.003906 27.511719 117.144531 C 27.542969 117.15625 27.578125 117.160156 27.613281 117.164062 C 27.820312 117.175781 28.011719 117.050781 28.082031 116.855469 C 28.15625 116.660156 28.089844 116.441406 27.925781 116.316406 C 27.898438 116.292969 27.867188 116.273438 27.835938 116.261719 Z M 27.835938 116.261719 "/>
</g>
<mask id="mask6">
  <g filter="url(#alpha)">
<rect x="0" y="0" width="167" height="160" style="fill:rgb(0%,0%,0%);fill-opacity:0.501961;stroke:none;"/>
  </g>
</mask>
<clipPath id="clip7">
  <rect width="167" height="160"/>
</clipPath>
<g id="surface24" clip-path="url(#clip7)">
<path style=" stroke:none;fill-rule:nonzero;fill:rgb(99.215686%,84.705882%,20.784314%);fill-opacity:1;" d="M 135.449219 13.96875 C 135.011719 13.777344 134.785156 13.285156 134.925781 12.828125 C 134.9375 12.792969 134.945312 12.757812 134.945312 12.722656 C 134.957031 12.515625 134.835938 12.320312 134.640625 12.25 C 134.445312 12.175781 134.226562 12.242188 134.101562 12.410156 C 134.078125 12.4375 134.0625 12.46875 134.046875 12.5 C 133.859375 12.941406 133.371094 13.167969 132.914062 13.027344 C 132.878906 13.015625 132.84375 13.007812 132.808594 13.007812 C 132.601562 12.996094 132.410156 13.121094 132.339844 13.316406 C 132.269531 13.511719 132.332031 13.730469 132.5 13.855469 C 132.527344 13.878906 132.558594 13.894531 132.589844 13.910156 C 133.027344 14.101562 133.253906 14.59375 133.113281 15.050781 C 133.101562 15.085938 133.09375 15.121094 133.09375 15.15625 C 133.082031 15.363281 133.207031 15.554688 133.398438 15.628906 C 133.59375 15.699219 133.8125 15.636719 133.9375 15.46875 C 133.960938 15.441406 133.976562 15.410156 133.992188 15.378906 C 134.179688 14.9375 134.667969 14.710938 135.125 14.851562 C 135.160156 14.863281 135.195312 14.867188 135.230469 14.871094 C 135.4375 14.882812 135.628906 14.757812 135.699219 14.5625 C 135.769531 14.367188 135.707031 14.148438 135.539062 14.019531 C 135.511719 14 135.480469 13.980469 135.449219 13.96875 Z M 135.449219 13.96875 "/>
</g>
<mask id="mask7">
  <g filter="url(#alpha)">
<rect x="0" y="0" width="167" height="160" style="fill:rgb(0%,0%,0%);fill-opacity:0.501961;stroke:none;"/>
  </g>
</mask>
<clipPath id="clip8">
  <rect width="167" height="160"/>
</clipPath>
<g id="surface27" clip-path="url(#clip8)">
<path style=" stroke:none;fill-rule:nonzero;fill:rgb(96.078431%,37.254902%,26.666667%);fill-opacity:1;" d="M 167.035156 64.425781 C 167.035156 65.277344 166.347656 65.964844 165.5 65.964844 C 164.652344 65.964844 163.96875 65.277344 163.96875 64.425781 C 163.96875 63.570312 164.652344 62.882812 165.5 62.882812 C 166.347656 62.882812 167.035156 63.570312 167.035156 64.425781 Z M 167.035156 64.425781 "/>
</g>
<mask id="mask8">
  <g filter="url(#alpha)">
<rect x="0" y="0" width="167" height="160" style="fill:rgb(0%,0%,0%);fill-opacity:0.501961;stroke:none;"/>
  </g>
</mask>
<clipPath id="clip9">
  <rect width="167" height="160"/>
</clipPath>
<g id="surface30" clip-path="url(#clip9)">
<path style=" stroke:none;fill-rule:nonzero;fill:rgb(96.078431%,37.254902%,26.666667%);fill-opacity:1;" d="M 48.523438 152.960938 C 48.523438 153.816406 47.835938 154.503906 46.988281 154.503906 C 46.144531 154.503906 45.457031 153.816406 45.457031 152.960938 C 45.457031 152.109375 46.144531 151.421875 46.988281 151.421875 C 47.835938 151.421875 48.523438 152.109375 48.523438 152.960938 Z M 48.523438 152.960938 "/>
</g>
<mask id="mask9">
  <g filter="url(#alpha)">
<rect x="0" y="0" width="167" height="160" style="fill:rgb(0%,0%,0%);fill-opacity:0.501961;stroke:none;"/>
  </g>
</mask>
<clipPath id="clip10">
  <rect width="167" height="160"/>
</clipPath>
<g id="surface33" clip-path="url(#clip10)">
<path style=" stroke:none;fill-rule:nonzero;fill:rgb(96.078431%,37.254902%,26.666667%);fill-opacity:1;" d="M 151.285156 97.769531 C 151.285156 98.621094 150.597656 99.3125 149.753906 99.3125 C 148.90625 99.3125 148.21875 98.621094 148.21875 97.769531 C 148.21875 96.914062 148.90625 96.226562 149.753906 96.226562 C 150.597656 96.226562 151.285156 96.914062 151.285156 97.769531 Z M 151.285156 97.769531 "/>
</g>
<mask id="mask10">
  <g filter="url(#alpha)">
<rect x="0" y="0" width="167" height="160" style="fill:rgb(0%,0%,0%);fill-opacity:0.501961;stroke:none;"/>
  </g>
</mask>
<clipPath id="clip11">
  <rect width="167" height="160"/>
</clipPath>
<g id="surface36" clip-path="url(#clip11)">
<path style=" stroke:none;fill-rule:nonzero;fill:rgb(30.196078%,54.117647%,94.117647%);fill-opacity:1;" d="M 19.28125 19.738281 C 19.28125 20.589844 18.59375 21.28125 17.746094 21.28125 C 16.898438 21.28125 16.214844 20.589844 16.214844 19.738281 C 16.214844 18.886719 16.898438 18.195312 17.746094 18.195312 C 18.59375 18.195312 19.28125 18.886719 19.28125 19.738281 Z M 19.28125 19.738281 "/>
</g>
<mask id="mask11">
  <g filter="url(#alpha)">
<rect x="0" y="0" width="167" height="160" style="fill:rgb(0%,0%,0%);fill-opacity:0.501961;stroke:none;"/>
  </g>
</mask>
<clipPath id="clip12">
  <rect width="167" height="160"/>
</clipPath>
<g id="surface39" clip-path="url(#clip12)">
<path style=" stroke:none;fill-rule:nonzero;fill:rgb(27.843137%,90.196078%,69.411765%);fill-opacity:1;" d="M 3.066406 61.820312 C 3.066406 62.671875 2.378906 63.363281 1.535156 63.363281 C 0.6875 63.363281 0 62.671875 0 61.820312 C 0 60.96875 0.6875 60.277344 1.535156 60.277344 C 2.378906 60.277344 3.066406 60.96875 3.066406 61.820312 Z M 3.066406 61.820312 "/>
</g>
</defs>
<g id="surface1">
<path style=" stroke:none;fill-rule:nonzero;fill:rgb(87.843137%,87.843137%,87.843137%);fill-opacity:1;" d="M 14.078125 27.757812 L 101.097656 8.976562 L 126.898438 129.921875 L 39.875 148.707031 Z M 14.078125 27.757812 "/>
<use xlink:href="#surface6" mask="url(#mask0)"/>
<path style=" stroke:none;fill-rule:nonzero;fill:rgb(98.039216%,98.039216%,98.039216%);fill-opacity:1;" d="M 17.238281 30.113281 L 99.179688 12.429688 L 123.554688 126.707031 L 41.613281 144.394531 Z M 17.238281 30.113281 "/>
<path style=" stroke:none;fill-rule:nonzero;fill:url(#linear1);" d="M 36.933594 20.679688 L 77.582031 11.90625 L 79.695312 21.8125 L 39.046875 30.585938 Z M 36.933594 20.679688 "/>
<path style=" stroke:none;fill-rule:nonzero;fill:url(#linear2);" d="M 55.195312 6.621094 C 52.054688 7.296875 50.070312 10.464844 50.761719 13.699219 C 51.449219 16.929688 54.550781 19 57.683594 18.324219 C 60.816406 17.644531 62.808594 14.476562 62.117188 11.246094 C 61.425781 8.015625 58.332031 5.941406 55.195312 6.621094 Z M 57.164062 15.859375 C 55.804688 16.183594 54.386719 15.652344 53.574219 14.511719 C 52.761719 13.371094 52.714844 11.851562 53.457031 10.660156 C 54.199219 9.472656 55.582031 8.855469 56.957031 9.097656 C 58.332031 9.335938 59.421875 10.390625 59.722656 11.761719 C 59.925781 12.644531 59.769531 13.574219 59.289062 14.34375 C 58.808594 15.113281 58.042969 15.660156 57.164062 15.859375 Z M 57.164062 15.859375 "/>
<path style=" stroke:none;fill-rule:nonzero;fill:rgb(42.352941%,38.823529%,100%);fill-opacity:1;" d="M 37.269531 20.164062 L 77.0625 11.574219 L 79.085938 21.042969 L 39.289062 29.632812 Z M 37.269531 20.164062 "/>
<path style=" stroke:none;fill-rule:nonzero;fill:rgb(42.352941%,38.823529%,100%);fill-opacity:1;" d="M 55.195312 6.621094 C 52.121094 7.28125 50.167969 10.324219 50.824219 13.414062 C 51.484375 16.503906 54.507812 18.472656 57.582031 17.808594 C 60.652344 17.144531 62.609375 14.101562 61.949219 11.011719 C 61.289062 7.921875 58.265625 5.957031 55.195312 6.621094 Z M 57.074219 15.449219 C 55.300781 15.832031 53.558594 14.695312 53.175781 12.914062 C 52.796875 11.128906 53.925781 9.375 55.699219 8.992188 C 57.472656 8.609375 59.214844 9.746094 59.597656 11.527344 C 59.976562 13.3125 58.847656 15.066406 57.074219 15.449219 Z M 57.074219 15.449219 "/>
<path style=" stroke:none;fill-rule:nonzero;fill:rgb(87.843137%,87.843137%,87.843137%);fill-opacity:1;" d="M 52.523438 23.949219 L 141.523438 23.949219 L 141.523438 147.652344 L 52.523438 147.652344 Z M 52.523438 23.949219 "/>
<use xlink:href="#surface9" mask="url(#mask1)"/>
<path style=" stroke:none;fill-rule:nonzero;fill:rgb(100%,100%,100%);fill-opacity:1;" d="M 55.121094 26.921875 L 138.925781 26.921875 L 138.925781 143.804688 L 55.121094 143.804688 Z M 55.121094 26.921875 "/>
<path style=" stroke:none;fill-rule:nonzero;fill:url(#linear4);" d="M 76.34375 21.855469 L 117.921875 21.855469 L 117.921875 31.984375 L 76.34375 31.984375 Z M 76.34375 21.855469 "/>
<path style=" stroke:none;fill-rule:nonzero;fill:url(#linear5);" d="M 97.132812 11.964844 C 93.921875 11.964844 91.320312 14.644531 91.320312 17.953125 C 91.320312 21.257812 93.921875 23.9375 97.132812 23.9375 C 100.34375 23.9375 102.945312 21.257812 102.945312 17.953125 C 102.945312 14.644531 100.34375 11.964844 97.132812 11.964844 Z M 97.132812 21.40625 C 95.738281 21.441406 94.460938 20.621094 93.902344 19.332031 C 93.347656 18.042969 93.621094 16.546875 94.59375 15.539062 C 95.570312 14.535156 97.054688 14.226562 98.347656 14.753906 C 99.640625 15.285156 100.484375 16.546875 100.484375 17.953125 C 100.5 19.832031 99 21.367188 97.132812 21.390625 Z M 97.132812 21.40625 "/>
<path style=" stroke:none;fill-rule:nonzero;fill:rgb(42.352941%,38.823529%,100%);fill-opacity:1;" d="M 76.785156 21.421875 L 117.484375 21.421875 L 117.484375 31.105469 L 76.785156 31.105469 Z M 76.785156 21.421875 "/>
<path style=" stroke:none;fill-rule:nonzero;fill:rgb(42.352941%,38.823529%,100%);fill-opacity:1;" d="M 97.132812 11.964844 C 93.992188 11.964844 91.445312 14.527344 91.445312 17.6875 C 91.445312 20.847656 93.992188 23.410156 97.132812 23.410156 C 100.273438 23.410156 102.820312 20.847656 102.820312 17.6875 C 102.820312 14.527344 100.273438 11.964844 97.132812 11.964844 Z M 97.132812 20.992188 C 95.320312 20.988281 93.855469 19.511719 93.855469 17.6875 C 93.855469 15.867188 95.320312 14.386719 97.132812 14.386719 C 98.945312 14.382812 100.414062 15.859375 100.421875 17.679688 C 100.417969 19.503906 98.945312 20.984375 97.132812 20.980469 Z M 97.132812 20.992188 "/>
<use xlink:href="#surface12" mask="url(#mask2)"/>
<use xlink:href="#surface15" mask="url(#mask3)"/>
<use xlink:href="#surface18" mask="url(#mask4)"/>
<use xlink:href="#surface21" mask="url(#mask5)"/>
<use xlink:href="#surface24" mask="url(#mask6)"/>
<use xlink:href="#surface27" mask="url(#mask7)"/>
<use xlink:href="#surface30" mask="url(#mask8)"/>
<use xlink:href="#surface33" mask="url(#mask9)"/>
<use xlink:href="#surface36" mask="url(#mask10)"/>
<use xlink:href="#surface39" mask="url(#mask11)"/>
</g>
</svg>
